<svg xmlns="http://www.w3.org/2000/svg" width="32" height="32" viewBox="0 0 32 32"><radialGradient id="a" cx="16" cy="16" r="16" gradientUnits="userSpaceOnUse"><stop offset="0%" stop-color="#fdf497"/><stop offset="45%" stop-color="#fdf497"/><stop offset="60%" stop-color="#fd5949"/><stop offset="90%" stop-color="#d6249f"/><stop offset="100%" stop-color="#285AEB"/></radialGradient><circle cx="16" cy="16" r="16" fill="url(#a)"/><path d="M22.5 9.5c-.3-.7-.8-1.2-1.5-1.5-.7-.3-1.5-.3-4.5-.3s-3.8 0-4.5.3c-.7.3-1.2.8-1.5 1.5-.3.7-.3 1.5-.3 4.5s0 3.8.3 4.5c.3.7.8 1.2 1.5 1.5.7.3 1.5.3 4.5.3s3.8 0 4.5-.3c.7-.3 1.2-.8 1.5-1.5.3-.7.3-1.5.3-4.5s0-3.8-.3-4.5zm-6.5 7.5c-1.7 0-3-1.3-3-3s1.3-3 3-3 3 1.3 3 3-1.3 3-3 3zm4-5.5c-.4 0-.8-.3-.8-.8s.3-.8.8-.8.8.3.8.8-.3.8-.8.8z" fill="#fff"/><circle cx="16" cy="16" r="5" fill="#fff"/></svg>
